{"title":"Ghost Lab - S02E05 - Theme Park of Death.[tNe.XViD].avi","uid":5990868,"size":365640088,"categoryP":"video","categoryS":"tv_shows","magnet":"?xt=urn:btih:9768898f8c974329f2276871e879772d4a62aec1&amp;dn=Ghost+Lab+-+S02E05+-+Theme+Park+of+Death.%5BtNe.XViD%5D.avi&amp;tr=udp%3A%2F%2Ftracker.openbittorrent.com%3A80&amp;tr=udp%3A%2F%2Fopen.demonii.com%3A1337&amp;tr=udp%3A%2F%2Ftracker.coppersurfer.tk%3A6969&amp;tr=udp%3A%2F%2Fexodus.desync.com%3A6969","seeders":1,"leechers":0,"uploader":"trialNerror","files":1,"time":1290886581,"description":"Format                           : AVI\nFormat/Info                      : Audio Video Interleave\nFile size                        : 349 MiB\nDuration                         : 41mn 23s\nOverall bit rate                 : 1 178 Kbps\nWriting application              : Lavf51.13.4\nWriting library                  : VirtualDub build 32839/release\n\nVideo\nID                               : 0\nFormat                           : MPEG-4 Visual\nFormat profile                   : Advanced Simple@L5\nFormat settings, BVOP            : Yes\nFormat settings, QPel            : No\nFormat settings, GMC             : No warppoints\nFormat settings, Matrix          : Default (H.263)\nCodec ID                         : XVID\nCodec ID/Hint                    : XviD\nDuration                         : 41mn 23s\nBit rate                         : 1 053 Kbps\nWidth                            : 624 pixels\nHeight                           : 352 pixels\nDisplay aspect ratio             : 16:9\nFrame rate                       : 29.970 fps\nColor space                      : YUV\nChroma subsampling               : 4:2:0\nBit depth                        : 8 bits\nScan type                        : Progressive\nBits/(Pixel*Frame)               : 0.160\nStream size                      : 312 MiB (89%)\nWriting library                  : XviD 1.2.1 (UTC 2008-12-04)\n\nAudio\nID                               : 1\nFormat                           : MPEG Audio\nFormat version                   : Version 1\nFormat profile                   : Layer 3\nMode                             : Joint stereo\nMode extension                   : MS Stereo\nCodec ID                         : 55\nCodec ID/Hint                    : MP3\nDuration                         : 41mn 23s\nBit rate mode                    : Variable\nNominal bit rate                 : 128 Kbps\nChannel(s)                       : 2 channels\nSampling rate                    : 48.0 KHz\nStream size                      : 32.9 MiB (9%)\nAlignment                        : Aligned on interleaves\nInterleave, duration             : 24 ms (0.72 video frame)\nInterleave, preload duration     : 555 ms\nWriting library                  : LAME3.98r\n","torrent":{"xt":"urn:btih:9768898f8c974329f2276871e879772d4a62aec1","amp;dn":"Ghost+Lab+-+S02E05+-+Theme+Park+of+Death.%5BtNe.XViD%5D.avi","amp;tr":["udp%3A%2F%2Ftracker.openbittorrent.com%3A80","udp%3A%2F%2Fopen.demonii.com%3A1337","udp%3A%2F%2Ftracker.coppersurfer.tk%3A6969","udp%3A%2F%2Fexodus.desync.com%3A6969"],"infoHash":"9768898f8c974329f2276871e879772d4a62aec1","infoHashBuffer":{"type":"Buffer","data":[151,104,137,143,140,151,67,41,242,39,104,113,232,121,119,45,74,98,174,193]},"announce":[],"urlList":[]}}